<svg width="60" height="70" viewBox="0 0 60 70" fill="none" xmlns="http://www.w3.org/2000/svg">
<path d="M39.813 33.2985C39.7557 33.9734 39.5032 34.6169 39.0863 35.1507C38.6694 35.6844 38.1061 36.0852 37.4652 36.3042C36.8243 36.5232 36.1336 36.5508 35.4772 36.3838C34.8209 36.2167 34.2274 35.8622 33.7691 35.3635C33.3109 34.8648 33.0078 34.2435 32.8967 33.5754C32.7857 32.9073 32.8716 32.2213 33.1439 31.6012C33.4162 30.981 33.8631 30.4536 34.4301 30.0833C34.9972 29.7129 35.6598 29.5156 36.337 29.5155C36.8137 29.5355 37.2818 29.6492 37.7146 29.8501C38.1473 30.0511 38.5362 30.3353 38.859 30.6866C39.1819 31.038 39.4323 31.4495 39.596 31.8977C39.7597 32.3458 39.8334 32.8218 39.813 33.2985ZM23.899 29.5155C22.9586 29.6061 22.0857 30.0437 21.4505 30.7431C20.8152 31.4424 20.4633 32.3533 20.4633 33.298C20.4633 34.2428 20.8152 35.1537 21.4505 35.853C22.0857 36.5523 22.9586 36.99 23.899 37.0805C24.3757 37.0606 24.8438 36.9469 25.2766 36.746C25.7093 36.545 26.0982 36.2608 26.421 35.9094C26.7439 35.5581 26.9943 35.1466 27.158 34.6984C27.3217 34.2503 27.3954 33.7742 27.375 33.2975C27.3982 32.8202 27.3264 32.3431 27.1638 31.8938C27.0011 31.4444 26.7508 31.0319 26.4275 30.6801C26.1041 30.3282 25.7141 30.0441 25.28 29.8442C24.846 29.6443 24.3766 29.5326 23.899 29.5155ZM59.884 7.94554V69.0785C51.299 61.4915 54.045 64.0035 44.072 54.7325L45.878 61.0325H7.23603C6.31661 61.0307 5.40655 60.8478 4.55785 60.4941C3.70914 60.1405 2.93841 59.6232 2.28967 58.9717C1.64093 58.3202 1.1269 57.5472 0.776936 56.697C0.42697 55.8468 0.247925 54.936 0.250029 54.0165V7.94554C0.247399 7.02578 0.426055 6.11452 0.775785 5.26384C1.12552 4.41317 1.63946 3.63975 2.28825 2.98781C2.93704 2.33586 3.70795 1.81816 4.55692 1.46431C5.40589 1.11045 6.31627 0.927373 7.23603 0.925537L52.898 0.925537C53.8178 0.927373 54.7282 1.11045 55.5771 1.46431C56.4261 1.81816 57.197 2.33586 57.8458 2.98781C58.4946 3.63975 59.0085 4.41317 59.3583 5.26384C59.708 6.11452 59.8867 7.02578 59.884 7.94554ZM50.172 40.2455C50.0615 33.3371 48.3836 26.544 45.265 20.3785C42.5202 18.2251 39.1746 16.9766 35.69 16.8055L35.213 17.3505C41.006 19.1225 43.698 21.6785 43.698 21.6785C39.8113 19.5839 35.4969 18.4059 31.085 18.2347C26.6731 18.0635 22.2805 18.9035 18.243 20.6905C16.982 21.2695 16.232 21.6785 16.232 21.6785C16.232 21.6785 19.06 18.9865 25.194 17.2145L24.85 16.8055C21.3645 16.9779 18.0185 18.2281 15.274 20.3835C12.1555 26.549 10.4776 33.3421 10.367 40.2505C10.367 40.2505 13.229 45.1915 20.76 45.4305C20.76 45.4305 22.021 43.8975 23.043 42.6025C20.6475 41.9981 18.5384 40.5758 17.08 38.5815C17.58 38.9325 18.408 39.3875 18.48 39.4335C21.7144 41.1965 25.3004 42.2181 28.9783 42.4243C32.6562 42.6305 36.3339 42.016 39.745 40.6255C41.1231 40.1054 42.4378 39.4307 43.664 38.6145C42.1509 40.6517 39.9661 42.088 37.496 42.6695C38.518 43.9645 39.745 45.4295 39.745 45.4295C47.276 45.1915 50.172 40.2495 50.172 40.2495V40.2455Z" fill="white"/>
</svg>
