<svg width="72" height="58" viewBox="0 0 72 58" fill="none" xmlns="http://www.w3.org/2000/svg">
<path d="M64.1981 14.2926C64.2431 14.9196 64.2431 15.5477 64.2431 16.1747C64.2431 35.3106 49.6781 57.3596 23.0581 57.3596C15.1775 57.38 7.4588 55.1236 0.830078 50.8616C1.99225 50.9896 3.16092 51.0494 4.33008 51.0406C10.8451 51.0573 17.1758 48.8788 22.3011 44.8567C19.2794 44.8026 16.3501 43.8058 13.9227 42.0056C11.4952 40.2053 9.69096 37.6915 8.76208 34.8157C9.6665 34.9588 10.5804 35.0337 11.4961 35.0396C12.7814 35.0359 14.0611 34.8702 15.3051 34.5466C12.0277 33.8838 9.08074 32.1068 6.9649 29.5175C4.84906 26.9283 3.69477 23.6864 3.69808 20.3426V20.1637C5.7039 21.2829 7.94581 21.9123 10.2411 22.0007C7.16937 19.951 4.99541 16.8066 4.16271 13.2089C3.33001 9.6113 3.90132 5.83149 5.76008 2.64065C9.3959 7.11572 13.9317 10.7766 19.0733 13.3861C24.215 15.9955 29.8476 17.4951 35.6061 17.7877C35.3736 16.6975 35.2533 15.5863 35.2471 14.4717C35.2506 11.5686 36.126 8.73349 37.76 6.33392C39.394 3.93435 41.7111 2.08096 44.411 1.01402C47.111 -0.0529256 50.0691 -0.284216 52.902 0.35013C55.735 0.984475 58.312 2.4552 60.2991 4.57165C63.541 3.94596 66.6496 2.76167 69.4861 1.07165C68.4066 4.41675 66.1438 7.25309 63.1221 9.04865C65.9969 8.72142 68.8067 7.96607 71.4581 6.80765C69.4762 9.69291 67.0218 12.2231 64.1981 14.2916V14.2926Z" fill="white"/>
</svg>
